Coordinates
version=1
nRows=8
nColumns=63
inDegrees=yes

Units are S.I. units (second, meters, Newtons, ...)
If the header above contains a line with 'inDegrees', this indicates whether rotational values are in degrees (yes) or radians (no).

endheader
time	pelvis_tilt	pelvis_list	pelvis_rotation	pelvis_tx	pelvis_ty	pelvis_tz	hip_flexion_r	hip_adduction_r	hip_rotation_r	knee_angle_r	knee_angle_r_beta	ankle_angle_r	subtalar_angle_r	mtp_angle_r	hip_flexion_l	hip_adduction_l	hip_rotation_l	knee_angle_l	knee_angle_l_beta	ankle_angle_l	subtalar_angle_l	mtp_angle_l	L5_S1_Flex_Ext	L5_S1_Lat_Bending	L5_S1_axial_rotation	L4_L5_Flex_Ext	L4_L5_Lat_Bending	L4_L5_axial_rotation	L3_L4_Flex_Ext	L3_L4_Lat_Bending	L3_L4_axial_rotation	L2_L3_Flex_Ext	L2_L3_Lat_Bending	L2_L3_axial_rotation	L1_L2_Flex_Ext	L1_L2_Lat_Bending	L1_L2_axial_rotation	L1_T12_Flex_Ext	L1_T12_Lat_Bending	L1_T12_axial_rotation	Abs_r3	Abs_r2	Abs_r1	Abs_t1	Abs_t2	neck_flexion	neck_bending	neck_rotation	arm_flex_r	arm_add_r	arm_rot_r	elbow_flex_r	pro_sup_r	wrist_flex_r	wrist_dev_r	arm_flex_l	arm_add_l	arm_rot_l	elbow_flex_l	pro_sup_l	wrist_flex_l	wrist_dev_l
0.000000	8.872354	-3.168508	93.732015	0.153154	0.887224	0.439189	6.801197	2.682362	-23.686615	18.680835	0.326042	30.446829	18.949600	0.000000	8.994338	-6.880199	-3.027771	19.245373	0.335895	27.860365	-3.106217	0.000000	0.074151	0.763651	0.298517	0.137707	1.015656	0.317175	0.121823	1.856741	0.317175	0.084748	1.856741	0.261203	0.068857	1.557237	0.242545	0.042370	1.182895	0.223888	0.529656	8.638571	1.660264	0.000000	0.000000	14.291970	-0.753125	-6.527709	18.326496	-6.801433	73.028692	41.712508	87.757937	-10.997081	-1.254036	11.600545	-5.464554	53.693282	49.327698	75.940592	-16.367851	-3.301007
0.016667	8.953737	-2.871059	94.603896	0.152681	0.887516	0.437379	6.024899	2.929128	-24.483113	18.125660	0.316352	30.463664	18.969735	0.000000	8.680216	-6.970847	-2.360094	19.152980	0.334283	27.829864	-2.854610	0.000000	0.072825	0.767353	0.130015	0.135243	1.020580	0.138141	0.119644	1.865742	0.138141	0.083231	1.865742	0.113763	0.067625	1.564786	0.105637	0.041612	1.188630	0.097511	0.520180	8.680452	0.723104	0.000000	0.000000	13.427966	-0.507137	-6.530713	18.265484	-6.953014	73.316532	42.142898	88.192565	-11.003948	-1.331014	11.505515	-6.176692	54.821243	50.106571	74.606444	-15.778530	-1.374932
0.033333	8.988936	-2.625262	95.300409	0.152324	0.887743	0.435872	5.375614	3.096161	-25.128072	17.669591	0.308393	30.463420	18.981132	0.000000	8.415070	-7.013030	-1.819222	19.088036	0.333149	27.803437	-2.651373	0.000000	0.071852	0.766000	-0.002406	0.133437	1.018780	-0.002557	0.118046	1.862452	-0.002557	0.082120	1.862452	-0.002105	0.066722	1.562027	-0.001955	0.041056	1.186534	-0.001805	0.513233	8.665142	-0.013383	0.000000	0.000000	12.738457	-0.330361	-6.577703	18.162245	-7.050712	73.467464	42.466255	88.519633	-10.961564	-1.337280	11.448669	-6.780400	55.790941	50.756614	73.896663	-15.338382	0.169294
0.050000	8.982653	-2.427478	95.835202	0.152071	0.887908	0.434647	4.845073	3.190708	-25.633242	17.306072	0.302048	30.450209	18.984838	0.000000	8.195345	-7.011227	-1.394007	19.047180	0.332436	27.780277	-2.494493	0.000000	0.071210	0.760175	-0.101625	0.132244	1.011033	-0.107977	0.116991	1.848289	-0.107977	0.081386	1.848289	-0.088922	0.066126	1.550149	-0.082571	0.040689	1.177511	-0.076219	0.508646	8.599251	-0.565209	0.000000	0.000000	12.210025	-0.216928	-6.662918	18.020490	-7.100348	73.494411	42.693700	88.742433	-10.871980	-1.284944	11.420051	-7.285261	56.605010	51.292612	73.736082	-15.025845	1.373957
0.066667	8.939591	-2.274066	96.221923	0.151913	0.888018	0.433685	4.425004	3.220016	-26.010372	17.028549	0.297204	30.428146	18.981903	0.000000	8.017485	-6.969920	-1.073302	19.027050	0.332085	27.759574	-2.381955	0.000000	0.070875	0.750463	-0.170521	0.131623	0.998116	-0.181179	0.116441	1.824677	-0.181179	0.081003	1.824677	-0.149206	0.065815	1.530345	-0.138549	0.040498	1.162468	-0.127891	0.506255	8.489391	-0.948389	0.000000	0.000000	11.829252	-0.160969	-6.780598	17.843924	-7.107744	73.410294	42.836353	88.864252	-10.737248	-1.186117	11.409702	-7.700861	57.266081	51.729348	74.049535	-14.819358	2.281342
0.083333	8.864452	-2.161389	96.474220	0.151839	0.888080	0.432964	4.107138	3.191333	-26.271212	16.830465	0.293747	30.401345	18.973373	0.000000	7.877934	-6.893588	-0.845960	19.024287	0.332036	27.740521	-2.311745	0.000000	0.070825	0.737449	-0.211974	0.131528	0.980807	-0.225222	0.116358	1.793034	-0.225222	0.080946	1.793034	-0.185477	0.065768	1.503806	-0.172229	0.040469	1.142309	-0.158980	0.505893	8.342173	-1.178934	0.000000	0.000000	11.582722	-0.156617	-6.924980	17.636258	-7.078720	73.228036	42.905333	88.888383	-10.559419	-1.052909	11.407665	-8.036781	57.776788	52.081608	74.761854	-14.697361	2.933733
0.100000	8.761940	-2.085804	96.605741	0.151837	0.888097	0.432462	3.883204	3.111906	-26.427509	16.705267	0.291562	30.373918	18.960297	0.000000	7.773138	-6.786711	-0.700832	19.035529	0.332233	27.722309	-2.281851	0.000000	0.071035	0.721717	-0.228862	0.131919	0.959883	-0.243165	0.116703	1.754782	-0.243165	0.081186	1.754782	-0.200254	0.065963	1.471725	-0.185950	0.040589	1.117939	-0.171646	0.507395	8.164206	-1.272860	0.000000	0.000000	11.457018	-0.198002	-7.090305	17.401198	-7.019098	72.960559	42.911761	88.818114	-10.340546	-0.897431	11.403981	-8.302606	58.139761	52.364176	75.797873	-14.638291	3.373415
0.116667	8.636756	-2.043673	96.630133	0.151899	0.888077	0.432159	3.744931	2.988983	-26.491014	16.646399	0.290534	30.349980	18.943723	0.000000	7.699541	-6.653771	-0.626771	19.057416	0.332615	27.704129	-2.290257	0.000000	0.071483	0.703851	-0.224064	0.132750	0.936122	-0.238068	0.117439	1.711343	-0.238068	0.081698	1.711343	-0.196056	0.066379	1.435293	-0.182052	0.040845	1.090265	-0.168048	0.510594	7.962101	-1.246178	0.000000	0.000000	11.438721	-0.279256	-7.270809	17.142453	-6.934699	72.620785	42.866756	88.656736	-10.082680	-0.731794	11.388693	-8.507920	58.357634	52.591835	77.082425	-14.620589	3.642674
